<?xml version="1.0" encoding="UTF-8" standalone="no"?>
<!DOCTYPE svg PUBLIC "-//W3C//DTD SVG 1.1//EN" "http://www.w3.org/Graphics/SVG/1.1/DTD/svg11.dtd">
<svg id="my-svg" width="100%" height="100%" viewBox="0 0 100 100" version="1.1" xmlns="http://www.w3.org/2000/svg" xmlns:xlink="http://www.w3.org/1999/xlink" xml:space="preserve" xmlns:serif="http://www.serif.com/" style="fill-rule:evenodd;clip-rule:evenodd;stroke-linecap:round;stroke-linejoin:round;stroke-miterlimit:1.5;">
    <path id="hor-3-2" d="M50,100L100,100" style="fill:transparent;stroke:black;stroke-width:5px;"/>
    <path id="hor-3-1" d="M0,100L50,100"  style="fill:transparent;stroke:black;stroke-width:5px;"/>
    <path id="hor-2-2" d="M100,50L50,50" style="fill:transparent;stroke:black;stroke-width:5px;"/>
    <path id="hor-2-1" d="M50,50L0,50" style="fill:transparent;stroke:black;stroke-width:5px;"/>
    <path id="hor-1-2" d="M100,0L50,0" style="fill:transparent;stroke:black;stroke-width:5px;"/>
    <path id="hor-1-1" d="M50,0L0,0" style="fill:transparent;stroke:black;stroke-width:5px;"/>
    <path id="ver-3-2" d="M100,100L100,50" style="fill:transparent;stroke:black;stroke-width:5px;"/>
    <path id="ver-3-1" d="M100,50L100,0" style="fill:transparent;stroke:black;stroke-width:5px;"/>
    <path id="ver-2-2" d="M50,100L50,50" style="fill:transparent;stroke:black;stroke-width:5px;"/>
    <path id="ver-2-1" d="M50,50L50,0" style="fill:transparent;stroke:black;stroke-width:5px;"/>
    <path id="ver-1-2" d="M0,50L0,100" style="fill:transparent;stroke:black;stroke-width:5px;"/>
    <path id="ver-1-1" d="M0,0L0,50" style="fill:transparent;stroke:black;stroke-width:5px;"/>
    <path id="arc-4" d="M100,50A50,50 0 0,0  50,100" style="fill:none;stroke:black;stroke-width:5px;"/>
    <path id="arc-3" d="M0,50 A50,50 0 0,1 50,100" style="fill:none;stroke:black;stroke-width:5px;"/>
    <path id="arc-2" d="M50,0 A50,50 0 0,0 100,50" style="fill:none;stroke:black;stroke-width:5px;"/>
    <path id="arc-1" d="M50,0 A50,50 0 0,1 0,50" style="fill:none;stroke:black;stroke-width:5px;"/>
</svg>

